<mxfile host="app.diagrams.net" modified="2021-01-07T17:57:00.439Z" agent="5.0 (Macintosh; Intel Mac OS X 11_1_0) AppleWebKit/537.36 (KHTML, like Gecko) Chrome/87.0.4280.88 Safari/537.36" etag="-KhiXLeQ7U2-3V8aqMU6" version="14.1.8" type="github">
  <diagram id="zATuuDOJOqqnnb39xHUV" name="Page-1">
    <mxGraphModel dx="942" dy="514" grid="1" gridSize="10" guides="1" tooltips="1" connect="1" arrows="1" fold="1" page="1" pageScale="1" pageWidth="850" pageHeight="1100" math="0" shadow="0">
      <root>
        <mxCell id="0" />
        <mxCell id="1" parent="0" />
        <mxCell id="6efq2Bgy2WIAbKUM5Qk9-1" value="" style="endArrow=none;html=1;" edge="1" parent="1">
          <mxGeometry width="50" height="50" relative="1" as="geometry">
            <mxPoint x="160" y="160" as="sourcePoint" />
            <mxPoint x="610" y="160" as="targetPoint" />
          </mxGeometry>
        </mxCell>
        <mxCell id="6efq2Bgy2WIAbKUM5Qk9-2" value="" style="endArrow=none;html=1;" edge="1" parent="1">
          <mxGeometry width="50" height="50" relative="1" as="geometry">
            <mxPoint x="160" y="540" as="sourcePoint" />
            <mxPoint x="160" y="160" as="targetPoint" />
          </mxGeometry>
        </mxCell>
        <mxCell id="6efq2Bgy2WIAbKUM5Qk9-3" value="" style="endArrow=none;html=1;" edge="1" parent="1">
          <mxGeometry width="50" height="50" relative="1" as="geometry">
            <mxPoint x="690" y="540" as="sourcePoint" />
            <mxPoint x="690" y="390" as="targetPoint" />
          </mxGeometry>
        </mxCell>
        <mxCell id="6efq2Bgy2WIAbKUM5Qk9-4" value="" style="endArrow=none;html=1;" edge="1" parent="1">
          <mxGeometry width="50" height="50" relative="1" as="geometry">
            <mxPoint x="160" y="540" as="sourcePoint" />
            <mxPoint x="690" y="540" as="targetPoint" />
          </mxGeometry>
        </mxCell>
        <mxCell id="6efq2Bgy2WIAbKUM5Qk9-5" value="" style="endArrow=none;html=1;" edge="1" parent="1">
          <mxGeometry width="50" height="50" relative="1" as="geometry">
            <mxPoint x="610" y="390" as="sourcePoint" />
            <mxPoint x="690" y="390" as="targetPoint" />
          </mxGeometry>
        </mxCell>
        <mxCell id="6efq2Bgy2WIAbKUM5Qk9-6" value="" style="endArrow=none;html=1;" edge="1" parent="1">
          <mxGeometry width="50" height="50" relative="1" as="geometry">
            <mxPoint x="610" y="390" as="sourcePoint" />
            <mxPoint x="610" y="160" as="targetPoint" />
          </mxGeometry>
        </mxCell>
        <mxCell id="6efq2Bgy2WIAbKUM5Qk9-9" value="" style="rounded=0;whiteSpace=wrap;html=1;fillColor=#000000;" vertex="1" parent="1">
          <mxGeometry x="160" y="220" width="40" height="130" as="geometry" />
        </mxCell>
        <mxCell id="6efq2Bgy2WIAbKUM5Qk9-10" value="Queen Bed" style="rounded=0;whiteSpace=wrap;html=1;fillColor=#FFFFFF;" vertex="1" parent="1">
          <mxGeometry x="720" y="160" width="270" height="200" as="geometry" />
        </mxCell>
        <mxCell id="6efq2Bgy2WIAbKUM5Qk9-11" value="Twin Bed" style="rounded=0;whiteSpace=wrap;html=1;fillColor=#FFFFFF;" vertex="1" parent="1">
          <mxGeometry x="160" y="350" width="250" height="180" as="geometry" />
        </mxCell>
        <mxCell id="6efq2Bgy2WIAbKUM5Qk9-12" value="" style="verticalLabelPosition=bottom;verticalAlign=top;html=1;shape=mxgraph.basic.pie;startAngle=0.75;endAngle=0.9979854880581688;fillColor=#FFFFFF;" vertex="1" parent="1">
          <mxGeometry x="556" y="416" width="270" height="250" as="geometry" />
        </mxCell>
        <mxCell id="6efq2Bgy2WIAbKUM5Qk9-13" value="" style="verticalLabelPosition=bottom;verticalAlign=top;html=1;shape=mxgraph.basic.pie;startAngle=0.75;endAngle=0.044534275983155465;fillColor=#FFFFFF;rotation=-90;" vertex="1" parent="1">
          <mxGeometry x="474.63" y="71.63" width="270" height="258.75" as="geometry" />
        </mxCell>
      </root>
    </mxGraphModel>
  </diagram>
</mxfile>
